<?xml version="1.0" encoding="UTF-8" standalone="no"?>
<!-- Created with Inkscape (http://www.inkscape.org/) -->

<svg
   xmlns:dc="http://purl.org/dc/elements/1.1/"
   xmlns:cc="http://creativecommons.org/ns#"
   xmlns:rdf="http://www.w3.org/1999/02/22-rdf-syntax-ns#"
   xmlns:svg="http://www.w3.org/2000/svg"
   xmlns="http://www.w3.org/2000/svg"
   xmlns:xlink="http://www.w3.org/1999/xlink"
   xmlns:sodipodi="http://sodipodi.sourceforge.net/DTD/sodipodi-0.dtd"
   xmlns:inkscape="http://www.inkscape.org/namespaces/inkscape"
   version="1.1"
   id="svg2"
   xml:space="preserve"
   width="500"
   height="500"
   viewBox="0 0 499.99998 499.99998"
   sodipodi:docname="78278-OFCMRM-389.svg"
   inkscape:version="0.92.4 5da689c313, 2019-01-14"><metadata
     id="metadata8"><rdf:RDF><cc:Work
         rdf:about=""><dc:format>image/svg+xml</dc:format><dc:type
           rdf:resource="http://purl.org/dc/dcmitype/StillImage" /><dc:title></dc:title></cc:Work></rdf:RDF></metadata><defs
     id="defs6"><clipPath
       clipPathUnits="userSpaceOnUse"
       id="clipPath312"><use
         x="0"
         y="0"
         xlink:href="#g308"
         id="use314"
         width="100%"
         height="100%" /></clipPath></defs><sodipodi:namedview
     pagecolor="#ffffff"
     bordercolor="#666666"
     borderopacity="1"
     objecttolerance="10"
     gridtolerance="10"
     guidetolerance="10"
     inkscape:pageopacity="0"
     inkscape:pageshadow="2"
     inkscape:window-width="1920"
     inkscape:window-height="1011"
     id="namedview4"
     showgrid="false"
     inkscape:zoom="1.0924799"
     inkscape:cx="85.842745"
     inkscape:cy="216.68939"
     inkscape:window-x="0"
     inkscape:window-y="40"
     inkscape:window-maximized="1"
     inkscape:current-layer="g10" /><g
     id="g10"
     inkscape:groupmode="layer"
     inkscape:label="ink_ext_XXXXXX"
     transform="matrix(1.3333333,0,0,-1.3333333,0,499.99995)"><g
       id="g310"
       clip-path="url(#clipPath312)"><g
         inkscape:label="Clip"
         id="g308" /></g><g
       id="g4937"><g
         id="g4904"><g
           style=""
           id="g317"><g
             id="g360"
             transform="matrix(0.43787313,0,0,0.43787313,99.374971,37.570411)" /><path
             style="fill:#0d237d;stroke-width:0.62845653;stroke:#0d237d;stroke-opacity:1;fill-opacity:1"
             d="m 42.162022,147.45787 c 7.566059,7.34465 14.273317,13.81987 30.60903,29.55033 l 4.434545,4.27015 10.334244,-5.26208 c 22.729119,-11.57347 46.194579,-18.88358 70.351869,-21.91655 8.47422,-1.06384 32.96823,-1.03817 40.84967,0.0457 29.64113,4.06594 55.21303,14.42718 78.62041,31.85559 l 5.44769,4.05612 19.20971,-0.16627 19.20975,-0.16628 -14.53741,-24.88538 -14.5374,-24.88533 -12.24234,-0.41029 c -6.73327,-0.22555 -64.91148,-0.41028 -129.2849,-0.41028 H 33.584273 Z"
             id="path346" /><path
             style="fill:#0d237d;stroke-width:0.62845653;fill-opacity:1"
             d="m 165.49051,157.36256 c -23.77616,1.98755 -49.21772,9.4476 -73.111473,21.43808 -7.225095,3.62574 -26.238527,14.17777 -31.269711,17.35397 -5.917655,3.73592 -17.007902,12.32072 -16.504731,12.77616 0.26344,0.23885 10.861042,7.5472 23.550065,16.24145 l 23.070873,15.80781 5.209658,-2.62787 c 2.865334,-1.44534 7.472049,-3.64925 10.237239,-4.89761 2.76527,-1.24827 6.51241,-3.08892 8.32708,-4.09025 l 3.29936,-1.82067 v -10.13757 c 0,-6.9507 0.29419,-11.26709 0.93583,-13.73048 4.20723,-16.1526 19.25786,-27.58737 40.83371,-31.02344 8.62035,-1.37288 24.35737,-0.88706 31.44571,0.97073 6.46079,1.69334 15.30964,6.07403 20.11058,9.9558 4.81232,3.89107 9.69857,10.70172 11.66219,16.25511 l 1.53541,4.34251 v 50.59078 50.59075 l 12.56913,9.48889 12.56913,9.48887 0.38745,-12.00272 c 0.21341,-6.60145 0.42139,-24.87037 0.46181,-40.59751 0.0769,-29.77407 -0.18334,-33.40054 -2.75557,-38.37525 -0.52969,-1.02435 -5.76731,-8.5754 -11.63905,-16.78005 -9.12913,-12.75612 -10.48856,-14.9471 -9.38273,-15.12148 0.71125,-0.11215 4.88826,0.69281 9.28229,1.78885 25.55747,6.37511 52.40403,20.33563 77.001,40.04148 4.42838,3.54781 8.17661,6.45049 8.32928,6.45049 0.1527,0 -3.50749,-7.56502 -8.1338,-16.81117 l -8.41155,-16.81123 -7.45921,-7.23013 c -15.01503,-14.55379 -31.38133,-26.22152 -48.9374,-34.88806 -12.41455,-6.1284 -19.47769,-8.82068 -31.30124,-11.93114 -15.96246,-4.1993 -36.11356,-6.02573 -51.91192,-4.7051 z"
             id="path344" /><path
             style="fill:#0d237d;stroke-width:0.62845653;fill-opacity:1"
             d="m 158.74999,177.19666 c -19.02556,3.19614 -32.53706,14.34905 -35.73081,29.49349 -0.77048,3.6538 -0.92808,12.3857 -0.92976,51.53342 l -0.001,47.13425 16.17394,7.35069 c 8.89545,4.04283 18.36546,8.34848 21.04423,9.56806 l 4.8706,2.21745 -0.001,-8.62544 -0.001,-8.62538 -4.90296,-1.73147 c -10.55699,-3.72827 -21.14294,-13.00572 -25.88726,-22.68742 -3.37763,-6.89257 -4.60114,-12.01383 -4.60114,-19.25882 0,-16.66186 9.3253,-31.53279 24.84493,-39.62016 20.07596,-5.47855 38.90867,-9.92656 59.28902,-7.54197 3.37468,0.42463 6.51513,0.91782 6.9788,1.09578 1.17059,0.44941 1.11969,-8.14308 -0.0815,-13.81324 -2.28778,-10.79646 -9.93415,-18.11909 -25.65899,-24.57262 -7.044,-2.89084 -24.10593,-3.81453 -35.40361,-1.91662 z"
             id="path285" /></g><path
           inkscape:connector-curvature="0"
           id="path106"
           style="fill:#ffffff;fill-opacity:1;fill-rule:nonzero;stroke:none;stroke-width:0.05255226"
           d="m 176.57191,180.49614 c -8.67427,0 -15.70682,1.85084 -15.70682,4.13313 0,2.28235 7.03255,4.13382 15.70682,4.13382 8.67428,0 15.7063,-1.85147 15.7063,-4.13382 0,-2.28229 -7.03202,-4.13313 -15.7063,-4.13313" /><path
           inkscape:connector-curvature="0"
           id="path116"
           style="fill:#0d237d;fill-opacity:1;fill-rule:nonzero;stroke:#ffffff;stroke-width:2.11950005;stroke-miterlimit:4;stroke-dasharray:none"
           d="m 176.94841,235.32031 c -14.98406,0 -27.1294,12.14724 -27.1294,27.1294 0,14.985 12.14534,27.13035 27.1294,27.13035 14.98216,0 27.12845,-12.14535 27.12845,-27.13035 0,-14.98216 -12.14629,-27.1294 -27.12845,-27.1294 z m 0,69.40967 c -24.3485,0 -44.08682,-19.73642 -44.08682,-44.08492 0,-26.03467 44.08682,-76.31367 44.08682,-76.31367 0,0 44.08681,48.34545 44.08681,76.31367 0,24.3485 -19.73831,44.08492 -44.08681,44.08492" /></g><g
         transform="translate(0,16.476276)"
         id="g4912"><g
           id="g4882"
           transform="translate(-3.4154945)"><g
             id="g4919"><path
               transform="matrix(0.43787313,0,0,0.43787313,99.374972,37.570411)"
               id="path352"
               d="m 329.24352,55.831866 c -16.26625,2.561854 -27.98635,11.721843 -33.85659,26.460904 -3.3381,8.381521 -3.84599,11.766497 -3.85171,25.67464 -0.006,11.3339 0.16629,13.56356 1.42354,18.53942 2.34381,9.27748 5.7296,15.48827 11.68058,21.42631 5.76514,5.75262 11.07318,8.75036 19.55203,11.04218 6.75969,1.82714 22.8371,2.0032 29.52009,0.32354 11.35169,-2.85344 20.33432,-9.76101 24.54526,-18.87513 2.13847,-4.62841 4.31295,-14.07373 3.461,-15.03336 -0.23801,-0.26865 -4.75814,-0.41029 -10.04374,-0.31439 l -9.61027,0.17408 -1.23329,4.01989 c -1.76332,5.74753 -6.19865,10.1283 -12.09959,11.95087 -4.98858,1.54092 -12.24545,1.72564 -17.0921,0.43507 -13.26175,-3.53103 -19.68041,-14.41594 -19.68041,-33.37421 0,-16.537377 4.86796,-26.920561 14.9477,-31.882806 3.66078,-1.802198 4.84632,-2.057721 10.52222,-2.267814 4.62639,-0.17122 7.36424,0.04433 9.89285,0.779588 6.39085,1.857849 11.8374,7.262303 13.88746,13.780087 l 1.12144,3.565299 h 10.03535 10.03533 l -0.42009,-2.985149 c -0.66951,-4.758472 -3.26216,-11.899334 -5.7092,-15.724631 -4.99228,-7.804272 -13.89842,-13.951495 -23.92998,-16.517137 -5.69387,-1.456242 -17.55096,-2.070796 -23.09797,-1.197189 z"
               style="fill:#0d237d;stroke-width:0.62845653;fill-opacity:1"
               inkscape:connector-curvature="0" /><path
               transform="matrix(0.43787313,0,0,0.43787313,99.374972,37.570411)"
               id="path350"
               d="m 125.5991,56.841665 c -12.78948,2.042045 -22.309,8.377407 -26.94574,17.932734 -4.00527,8.253773 -4.16287,10.128248 -4.16287,49.505321 v 35.22006 h 10.34527 10.34521 l 0.18131,-35.97912 0.18131,-35.97915 1.69641,-3.619944 c 3.22552,-6.883003 8.0871,-9.535374 17.47154,-9.532074 10.18645,0.0028 16.24309,2.711812 19.08357,8.533123 2.47062,5.063383 2.88933,11.692737 2.90149,45.939885 l 0.0144,30.63728 h 10.08741 10.08751 l -0.22637,-37.23607 c -0.19694,-32.40855 -0.36139,-37.680474 -1.26612,-40.664043 -5.0957,-16.798673 -16.92153,-24.376554 -38.79318,-24.858318 -5.01195,-0.110492 -9.961,-0.06524 -10.99794,0.100314 z"
               style="fill:#0d237d;stroke-width:0.62845653;fill-opacity:1"
               inkscape:connector-curvature="0" /><path
               transform="matrix(0.43787313,0,0,0.43787313,99.374972,37.570411)"
               id="path348"
               d="m 202.58504,96.654126 v 37.078914 h 9.42682 9.42684 v -4.49039 -4.49029 l 3.45488,3.26745 c 6.35058,6.00605 14.79364,8.49232 24.18872,7.12295 10.82397,-1.57755 16.38957,-6.67793 18.58384,-17.03063 0.68196,-3.21731 0.88748,-10.41262 0.89589,-31.356206 l 0.0144,-27.180734 h -9.74102 -9.74115 v 23.481339 c 0,13.146915 -0.27906,24.971201 -0.63466,26.866511 -1.08684,5.79937 -4.21382,8.76663 -9.71966,9.22325 -6.60217,0.54752 -12.08228,-2.24651 -14.95951,-7.62714 -1.36394,-2.55061 -1.40002,-3.17275 -1.5803,-27.277041 L 222.01564,59.57519 h -9.71374 -9.71372 z"
               style="fill:#0d237d;stroke-width:0.62845653;fill-opacity:1"
               inkscape:connector-curvature="0" /><text
               xml:space="preserve"
               style="font-style:normal;font-variant:normal;font-weight:bold;font-stretch:normal;font-size:40.8429985px;line-height:1.25;font-family:sans-serif;-inkscape-font-specification:'sans-serif, Bold';font-variant-ligatures:normal;font-variant-caps:normal;font-variant-numeric:normal;font-feature-settings:normal;text-align:start;letter-spacing:0px;word-spacing:0px;writing-mode:lr-tb;text-anchor:start;fill:#cf1a18;fill-opacity:1;stroke:none;stroke-width:1.02107501;"
               x="91.816788"
               y="-62.389442"
               id="text364"
               transform="scale(1,-1)"><tspan
                 sodipodi:role="line"
                 id="tspan362"
                 x="91.816788"
                 y="-62.389442"
                 style="font-style:normal;font-variant:normal;font-weight:bold;font-stretch:normal;font-size:40.8429985px;font-family:sans-serif;-inkscape-font-specification:'sans-serif, Bold';font-variant-ligatures:normal;font-variant-caps:normal;font-variant-numeric:normal;font-feature-settings:normal;text-align:start;writing-mode:lr-tb;text-anchor:start;stroke-width:1.02107501;fill:#cf1a18;fill-opacity:1;">li-</tspan></text>
</g></g></g></g></g></svg>